# xmcd
# 
# Track frame offsets:
#     182
#     11992
#     25672
#     45027
#     65330
#     81520
#     104555
#     123967
# 
# Disc length: 1982
# 
# Revision: 1
# Processed by: cddbd v1.5.2PL0 Copyright (c) Steve Scherf et al.
# Submitted via: BonkEnc v1.0
# 
DISCID=5e07bc08
DTITLE=Led Zeppelin - Coda
DYEAR=1982
DGENRE=Rock
TTITLE0=We're Gonna Groove
TTITLE1=Poor Tom
TTITLE2=I Can't Quit You Baby
TTITLE3=Walter's Walk
TTITLE4=Ozone Baby
TTITLE5=Darlene
TTITLE6=Bonzo's Montreux
TTITLE7=Wearing And Tearing
EXTD=
EXTT0=
EXTT1=
EXTT2=
EXTT3=
EXTT4=
EXTT5=
EXTT6=
EXTT7=
PLAYORDER=
